<svg xmlns="http://www.w3.org/2000/svg" xmlns:xlink="http://www.w3.org/1999/xlink" style="margin:auto;background:#f1f2f3;display:block;z-index:1;position:relative" width="1920" height="993" preserveAspectRatio="xMidYMid" viewBox="0 0 1920 993">
    <g transform="translate(960,496.5) scale(1,1) translate(-960,-496.5)"><defs>
        <linearGradient id="lg-0.32329240423913275" x1="0" x2="0" y1="0" y2="1">
            <stop stop-color="#0e0f13" offset="0.72"></stop>
            <stop stop-color="#0e0f13" offset="0.86"></stop>
            <stop stop-color="#0e0f13" offset="1"></stop>
        </linearGradient>
        <linearGradient id="fg-lg-0.32329240423913275" x1="0" x2="0" y1="0" y2="1">
            <stop stop-color="#0e0f13" stop-opacity="1" offset="0.72"></stop>
            <stop stop-color="#0e0f13" stop-opacity="0.66" offset="0.86"></stop>
            <stop stop-color="#0e0f13" stop-opacity="0" offset="1"></stop>
        </linearGradient>
        <style type="text/css">
            path { fill: none; stroke: #027373; stroke-width: 1px }
        </style>
    </defs>
        <rect x="0" y="0" width="1920" height="993" fill="url(#lg-0.32329240423913275)"></rect><path d="M0 714.9599999999999 L-13728 993"></path><path d="M9.6 714.9599999999999 L-13581.12 993"></path><path d="M19.2 714.9599999999999 L-13434.24 993"></path><path d="M28.8 714.9599999999999 L-13287.36 993"></path><path d="M38.4 714.9599999999999 L-13140.48 993"></path><path d="M48 714.9599999999999 L-12993.6 993"></path><path d="M57.6 714.9599999999999 L-12846.72 993"></path><path d="M67.2 714.9599999999999 L-12699.84 993"></path><path d="M76.8 714.9599999999999 L-12552.96 993"></path><path d="M86.4 714.9599999999999 L-12406.08 993"></path><path d="M96 714.9599999999999 L-12259.2 993"></path><path d="M105.6 714.9599999999999 L-12112.32 993"></path><path d="M115.2 714.9599999999999 L-11965.44 993"></path><path d="M124.8 714.9599999999999 L-11818.56 993"></path><path d="M134.4 714.9599999999999 L-11671.68 993"></path><path d="M144 714.9599999999999 L-11524.8 993"></path><path d="M153.6 714.9599999999999 L-11377.92 993"></path><path d="M163.2 714.9599999999999 L-11231.04 993"></path><path d="M172.8 714.9599999999999 L-11084.16 993"></path><path d="M182.4 714.9599999999999 L-10937.28 993"></path><path d="M192 714.9599999999999 L-10790.4 993"></path><path d="M201.6 714.9599999999999 L-10643.52 993"></path><path d="M211.2 714.9599999999999 L-10496.64 993"></path><path d="M220.8 714.9599999999999 L-10349.76 993"></path><path d="M230.4 714.9599999999999 L-10202.880000000001 993"></path><path d="M240 714.9599999999999 L-10056 993"></path><path d="M249.6 714.9599999999999 L-9909.119999999999 993"></path><path d="M259.2 714.9599999999999 L-9762.24 993"></path><path d="M268.8 714.9599999999999 L-9615.36 993"></path><path d="M278.4 714.9599999999999 L-9468.48 993"></path><path d="M288 714.9599999999999 L-9321.6 993"></path><path d="M297.6 714.9599999999999 L-9174.720000000001 993"></path><path d="M307.2 714.9599999999999 L-9027.84 993"></path><path d="M316.8 714.9599999999999 L-8880.96 993"></path><path d="M326.4 714.9599999999999 L-8734.08 993"></path><path d="M336 714.9599999999999 L-8587.2 993"></path><path d="M345.6 714.9599999999999 L-8440.32 993"></path><path d="M355.2 714.9599999999999 L-8293.439999999999 993"></path><path d="M364.8 714.9599999999999 L-8146.56 993"></path><path d="M374.4 714.9599999999999 L-7999.68 993"></path><path d="M384 714.9599999999999 L-7852.8 993"></path><path d="M393.6 714.9599999999999 L-7705.92 993"></path><path d="M403.2 714.9599999999999 L-7559.04 993"></path><path d="M412.8 714.9599999999999 L-7412.16 993"></path><path d="M422.4 714.9599999999999 L-7265.28 993"></path><path d="M432 714.9599999999999 L-7118.4 993"></path><path d="M441.6 714.9599999999999 L-6971.52 993"></path><path d="M451.2 714.9599999999999 L-6824.64 993"></path><path d="M460.8 714.9599999999999 L-6677.76 993"></path><path d="M470.4 714.9599999999999 L-6530.88 993"></path><path d="M480 714.9599999999999 L-6384 993"></path><path d="M489.6 714.9599999999999 L-6237.12 993"></path><path d="M499.2 714.9599999999999 L-6090.24 993"></path><path d="M508.8 714.9599999999999 L-5943.36 993"></path><path d="M518.4 714.9599999999999 L-5796.48 993"></path><path d="M528 714.9599999999999 L-5649.6 993"></path><path d="M537.6 714.9599999999999 L-5502.719999999999 993"></path><path d="M547.2 714.9599999999999 L-5355.84 993"></path><path d="M556.8 714.9599999999999 L-5208.959999999999 993"></path><path d="M566.4 714.9599999999999 L-5062.08 993"></path><path d="M576 714.9599999999999 L-4915.200000000001 993"></path><path d="M585.6 714.9599999999999 L-4768.32 993"></path><path d="M595.2 714.9599999999999 L-4621.4400000000005 993"></path><path d="M604.8 714.9599999999999 L-4474.5599999999995 993"></path><path d="M614.4 714.9599999999999 L-4327.68 993"></path><path d="M624 714.9599999999999 L-4180.799999999999 993"></path><path d="M633.6 714.9599999999999 L-4033.92 993"></path><path d="M643.2 714.9599999999999 L-3887.040000000001 993"></path><path d="M652.8 714.9599999999999 L-3740.16 993"></path><path d="M662.4 714.9599999999999 L-3593.2800000000007 993"></path><path d="M672 714.9599999999999 L-3446.3999999999996 993"></path><path d="M681.6 714.9599999999999 L-3299.5200000000004 993"></path><path d="M691.2 714.9599999999999 L-3152.6399999999994 993"></path><path d="M700.8 714.9599999999999 L-3005.76 993"></path><path d="M710.4 714.9599999999999 L-2858.879999999999 993"></path><path d="M720 714.9599999999999 L-2712 993"></path><path d="M729.6 714.9599999999999 L-2565.120000000001 993"></path><path d="M739.2 714.9599999999999 L-2418.24 993"></path><path d="M748.8 714.9599999999999 L-2271.3600000000006 993"></path><path d="M758.4 714.9599999999999 L-2124.4799999999996 993"></path><path d="M768 714.9599999999999 L-1977.6000000000004 993"></path><path d="M777.6 714.9599999999999 L-1830.7199999999993 993"></path><path d="M787.2 714.9599999999999 L-1683.8400000000001 993"></path><path d="M796.8 714.9599999999999 L-1536.9599999999991 993"></path><path d="M806.4 714.9599999999999 L-1390.08 993"></path><path d="M816 714.9599999999999 L-1243.2000000000007 993"></path><path d="M825.6 714.9599999999999 L-1096.3199999999997 993"></path><path d="M835.2 714.9599999999999 L-949.4400000000005 993"></path><path d="M844.8 714.9599999999999 L-802.5599999999995 993"></path><path d="M854.4 714.9599999999999 L-655.6800000000003 993"></path><path d="M864 714.9599999999999 L-508.7999999999993 993"></path><path d="M873.6 714.9599999999999 L-361.9200000000001 993"></path><path d="M883.2 714.9599999999999 L-215.04000000000087 993"></path><path d="M892.8 714.9599999999999 L-68.15999999999985 993"></path><path d="M902.4 714.9599999999999 L78.71999999999935 993"></path><path d="M912 714.9599999999999 L225.60000000000036 993"></path><path d="M921.6 714.9599999999999 L372.47999999999956 993"></path><path d="M931.2 714.9599999999999 L519.3600000000006 993"></path><path d="M940.8 714.9599999999999 L666.2399999999998 993"></path><path d="M950.4 714.9599999999999 L813.1200000000008 993"></path><path d="M960 714.9599999999999 L960 993"></path><path d="M969.6 714.9599999999999 L1106.8799999999992 993"></path><path d="M979.2 714.9599999999999 L1253.7600000000002 993"></path><path d="M988.8 714.9599999999999 L1400.6399999999994 993"></path><path d="M998.4 714.9599999999999 L1547.5200000000004 993"></path><path d="M1008 714.9599999999999 L1694.3999999999996 993"></path><path d="M1017.6 714.9599999999999 L1841.2800000000007 993"></path><path d="M1027.2 714.9599999999999 L1988.1599999999999 993"></path><path d="M1036.8 714.9599999999999 L2135.040000000001 993"></path><path d="M1046.4 714.9599999999999 L2281.92 993"></path><path d="M1056 714.9599999999999 L2428.7999999999993 993"></path><path d="M1065.6 714.9599999999999 L2575.6800000000003 993"></path><path d="M1075.2 714.9599999999999 L2722.5600000000013 993"></path><path d="M1084.8 714.9599999999999 L2869.4399999999987 993"></path><path d="M1094.4 714.9599999999999 L3016.3199999999997 993"></path><path d="M1104 714.9599999999999 L3163.2000000000007 993"></path><path d="M1113.6 714.9599999999999 L3310.0800000000017 993"></path><path d="M1123.2 714.9599999999999 L3456.959999999999 993"></path><path d="M1132.8 714.9599999999999 L3603.84 993"></path><path d="M1142.4 714.9599999999999 L3750.720000000001 993"></path><path d="M1152 714.9599999999999 L3897.5999999999985 993"></path><path d="M1161.6 714.9599999999999 L4044.4799999999996 993"></path><path d="M1171.2 714.9599999999999 L4191.360000000001 993"></path><path d="M1180.8 714.9599999999999 L4338.240000000002 993"></path><path d="M1190.4 714.9599999999999 L4485.119999999999 993"></path><path d="M1200 714.9599999999999 L4632 993"></path><path d="M1209.6 714.9599999999999 L4778.880000000001 993"></path><path d="M1219.2 714.9599999999999 L4925.759999999998 993"></path><path d="M1228.8 714.9599999999999 L5072.639999999999 993"></path><path d="M1238.4 714.9599999999999 L5219.52 993"></path><path d="M1248 714.9599999999999 L5366.4000000000015 993"></path><path d="M1257.6 714.9599999999999 L5513.279999999999 993"></path><path d="M1267.2 714.9599999999999 L5660.16 993"></path><path d="M1276.8 714.9599999999999 L5807.040000000001 993"></path><path d="M1286.4 714.9599999999999 L5953.919999999998 993"></path><path d="M1296 714.9599999999999 L6100.799999999999 993"></path><path d="M1305.6 714.9599999999999 L6247.68 993"></path><path d="M1315.2 714.9599999999999 L6394.560000000001 993"></path><path d="M1324.8 714.9599999999999 L6541.439999999999 993"></path><path d="M1334.4 714.9599999999999 L6688.32 993"></path><path d="M1344 714.9599999999999 L6835.200000000001 993"></path><path d="M1353.6 714.9599999999999 L6982.080000000002 993"></path><path d="M1363.2 714.9599999999999 L7128.959999999999 993"></path><path d="M1372.8 714.9599999999999 L7275.84 993"></path><path d="M1382.4 714.9599999999999 L7422.720000000001 993"></path><path d="M1392 714.9599999999999 L7569.5999999999985 993"></path><path d="M1401.6 714.9599999999999 L7716.48 993"></path><path d="M1411.2 714.9599999999999 L7863.360000000001 993"></path><path d="M1420.8 714.9599999999999 L8010.240000000002 993"></path><path d="M1430.4 714.9599999999999 L8157.119999999999 993"></path><path d="M1440 714.9599999999999 L8304 993"></path><path d="M1449.6 714.9599999999999 L8450.880000000001 993"></path><path d="M1459.2 714.9599999999999 L8597.759999999998 993"></path><path d="M1468.8 714.9599999999999 L8744.64 993"></path><path d="M1478.4 714.9599999999999 L8891.52 993"></path><path d="M1488 714.9599999999999 L9038.400000000001 993"></path><path d="M1497.6 714.9599999999999 L9185.279999999999 993"></path><path d="M1507.2 714.9599999999999 L9332.16 993"></path><path d="M1516.8 714.9599999999999 L9479.04 993"></path><path d="M1526.4 714.9599999999999 L9625.919999999998 993"></path><path d="M1536 714.9599999999999 L9772.8 993"></path><path d="M1545.6 714.9599999999999 L9919.68 993"></path><path d="M1555.2 714.9599999999999 L10066.560000000001 993"></path><path d="M1564.8 714.9599999999999 L10213.439999999999 993"></path><path d="M1574.4 714.9599999999999 L10360.32 993"></path><path d="M1584 714.9599999999999 L10507.2 993"></path><path d="M1593.6 714.9599999999999 L10654.080000000002 993"></path><path d="M1603.2 714.9599999999999 L10800.96 993"></path><path d="M1612.8 714.9599999999999 L10947.84 993"></path><path d="M1622.4 714.9599999999999 L11094.720000000001 993"></path><path d="M1632 714.9599999999999 L11241.599999999999 993"></path><path d="M1641.6 714.9599999999999 L11388.48 993"></path><path d="M1651.2 714.9599999999999 L11535.36 993"></path><path d="M1660.8 714.9599999999999 L11682.240000000002 993"></path><path d="M1670.4 714.9599999999999 L11829.119999999999 993"></path><path d="M1680 714.9599999999999 L11976 993"></path><path d="M1689.6 714.9599999999999 L12122.880000000001 993"></path><path d="M1699.2 714.9599999999999 L12269.759999999998 993"></path><path d="M1708.8 714.9599999999999 L12416.64 993"></path><path d="M1718.4 714.9599999999999 L12563.52 993"></path><path d="M1728 714.9599999999999 L12710.400000000001 993"></path><path d="M1737.6 714.9599999999999 L12857.279999999999 993"></path><path d="M1747.2 714.9599999999999 L13004.16 993"></path><path d="M1756.8 714.9599999999999 L13151.04 993"></path><path d="M1766.4 714.9599999999999 L13297.919999999998 993"></path><path d="M1776 714.9599999999999 L13444.8 993"></path><path d="M1785.6 714.9599999999999 L13591.68 993"></path><path d="M1795.2 714.9599999999999 L13738.560000000001 993"></path><path d="M1804.8 714.9599999999999 L13885.439999999999 993"></path><path d="M1814.4 714.9599999999999 L14032.32 993"></path><path d="M1824 714.9599999999999 L14179.2 993"></path><path d="M1833.6 714.9599999999999 L14326.080000000002 993"></path><path d="M1843.2 714.9599999999999 L14472.96 993"></path><path d="M1852.8 714.9599999999999 L14619.84 993"></path><path d="M1862.4 714.9599999999999 L14766.720000000001 993"></path><path d="M1872 714.9599999999999 L14913.599999999999 993"></path><path d="M1881.6 714.9599999999999 L15060.48 993"></path><path d="M1891.2 714.9599999999999 L15207.36 993"></path><path d="M1900.8 714.9599999999999 L15354.240000000002 993"></path><path d="M1910.4 714.9599999999999 L15501.119999999999 993"></path><path d="M1920 714.9599999999999 L15648 993"></path><g>
            <path d="M0 714.9599999999999 L1920 714.9599999999999"></path>
            <animateTransform attributeName="transform" type="translate" repeatCount="indefinite" calcMode="linear" keyTimes="0;1" values="0 0;0 0.8897280000000001" begin="0s" dur="0.8333333333333334s"></animateTransform>

        </g><g>
            <path d="M0 715.8497279999999 L1920 715.8497279999999"></path>
            <animateTransform attributeName="transform" type="translate" repeatCount="indefinite" calcMode="linear" keyTimes="0;1" values="0 0;0 1.7794560000000004" begin="0s" dur="0.8333333333333334s"></animateTransform>

        </g><g>
            <path d="M0 717.6291839999999 L1920 717.6291839999999"></path>
            <animateTransform attributeName="transform" type="translate" repeatCount="indefinite" calcMode="linear" keyTimes="0;1" values="0 0;0 2.6691840000000004" begin="0s" dur="0.8333333333333334s"></animateTransform>

        </g><g>
            <path d="M0 720.2983679999999 L1920 720.2983679999999"></path>
            <animateTransform attributeName="transform" type="translate" repeatCount="indefinite" calcMode="linear" keyTimes="0;1" values="0 0;0 3.5589120000000003" begin="0s" dur="0.8333333333333334s"></animateTransform>

        </g><g>
            <path d="M0 723.8572799999998 L1920 723.8572799999998"></path>
            <animateTransform attributeName="transform" type="translate" repeatCount="indefinite" calcMode="linear" keyTimes="0;1" values="0 0;0 4.44864" begin="0s" dur="0.8333333333333334s"></animateTransform>

        </g><g>
            <path d="M0 728.3059199999998 L1920 728.3059199999998"></path>
            <animateTransform attributeName="transform" type="translate" repeatCount="indefinite" calcMode="linear" keyTimes="0;1" values="0 0;0 5.338368" begin="0s" dur="0.8333333333333334s"></animateTransform>

        </g><g>
            <path d="M0 733.6442879999997 L1920 733.6442879999997"></path>
            <animateTransform attributeName="transform" type="translate" repeatCount="indefinite" calcMode="linear" keyTimes="0;1" values="0 0;0 6.228096" begin="0s" dur="0.8333333333333334s"></animateTransform>

        </g><g>
            <path d="M0 739.8723839999998 L1920 739.8723839999998"></path>
            <animateTransform attributeName="transform" type="translate" repeatCount="indefinite" calcMode="linear" keyTimes="0;1" values="0 0;0 7.117824000000001" begin="0s" dur="0.8333333333333334s"></animateTransform>

        </g><g>
            <path d="M0 746.9902079999998 L1920 746.9902079999998"></path>
            <animateTransform attributeName="transform" type="translate" repeatCount="indefinite" calcMode="linear" keyTimes="0;1" values="0 0;0 8.007552" begin="0s" dur="0.8333333333333334s"></animateTransform>

        </g><g>
            <path d="M0 754.9977599999999 L1920 754.9977599999999"></path>
            <animateTransform attributeName="transform" type="translate" repeatCount="indefinite" calcMode="linear" keyTimes="0;1" values="0 0;0 8.89728" begin="0s" dur="0.8333333333333334s"></animateTransform>

        </g><g>
            <path d="M0 763.8950399999999 L1920 763.8950399999999"></path>
            <animateTransform attributeName="transform" type="translate" repeatCount="indefinite" calcMode="linear" keyTimes="0;1" values="0 0;0 9.787008" begin="0s" dur="0.8333333333333334s"></animateTransform>

        </g><g>
            <path d="M0 773.6820479999999 L1920 773.6820479999999"></path>
            <animateTransform attributeName="transform" type="translate" repeatCount="indefinite" calcMode="linear" keyTimes="0;1" values="0 0;0 10.676736" begin="0s" dur="0.8333333333333334s"></animateTransform>

        </g><g>
            <path d="M0 784.3587839999999 L1920 784.3587839999999"></path>
            <animateTransform attributeName="transform" type="translate" repeatCount="indefinite" calcMode="linear" keyTimes="0;1" values="0 0;0 11.566464" begin="0s" dur="0.8333333333333334s"></animateTransform>

        </g><g>
            <path d="M0 795.9252479999999 L1920 795.9252479999999"></path>
            <animateTransform attributeName="transform" type="translate" repeatCount="indefinite" calcMode="linear" keyTimes="0;1" values="0 0;0 12.456192" begin="0s" dur="0.8333333333333334s"></animateTransform>

        </g><g>
            <path d="M0 808.3814399999999 L1920 808.3814399999999"></path>
            <animateTransform attributeName="transform" type="translate" repeatCount="indefinite" calcMode="linear" keyTimes="0;1" values="0 0;0 13.34592" begin="0s" dur="0.8333333333333334s"></animateTransform>

        </g><g>
            <path d="M0 821.7273599999999 L1920 821.7273599999999"></path>
            <animateTransform attributeName="transform" type="translate" repeatCount="indefinite" calcMode="linear" keyTimes="0;1" values="0 0;0 14.235648" begin="0s" dur="0.8333333333333334s"></animateTransform>

        </g><g>
            <path d="M0 835.9630079999998 L1920 835.9630079999998"></path>
            <animateTransform attributeName="transform" type="translate" repeatCount="indefinite" calcMode="linear" keyTimes="0;1" values="0 0;0 15.125376000000001" begin="0s" dur="0.8333333333333334s"></animateTransform>

        </g><g>
            <path d="M0 851.0883839999998 L1920 851.0883839999998"></path>
            <animateTransform attributeName="transform" type="translate" repeatCount="indefinite" calcMode="linear" keyTimes="0;1" values="0 0;0 16.015104" begin="0s" dur="0.8333333333333334s"></animateTransform>

        </g><g>
            <path d="M0 867.1034879999997 L1920 867.1034879999997"></path>
            <animateTransform attributeName="transform" type="translate" repeatCount="indefinite" calcMode="linear" keyTimes="0;1" values="0 0;0 16.904832000000003" begin="0s" dur="0.8333333333333334s"></animateTransform>

        </g><g>
            <path d="M0 884.0083199999998 L1920 884.0083199999998"></path>
            <animateTransform attributeName="transform" type="translate" repeatCount="indefinite" calcMode="linear" keyTimes="0;1" values="0 0;0 17.794560000000004" begin="0s" dur="0.8333333333333334s"></animateTransform>

        </g><g>
            <path d="M0 901.8028799999998 L1920 901.8028799999998"></path>
            <animateTransform attributeName="transform" type="translate" repeatCount="indefinite" calcMode="linear" keyTimes="0;1" values="0 0;0 18.684288000000006" begin="0s" dur="0.8333333333333334s"></animateTransform>

        </g><g>
            <path d="M0 920.4871679999999 L1920 920.4871679999999"></path>
            <animateTransform attributeName="transform" type="translate" repeatCount="indefinite" calcMode="linear" keyTimes="0;1" values="0 0;0 19.574016000000007" begin="0s" dur="0.8333333333333334s"></animateTransform>

        </g><g>
            <path d="M0 940.0611839999999 L1920 940.0611839999999"></path>
            <animateTransform attributeName="transform" type="translate" repeatCount="indefinite" calcMode="linear" keyTimes="0;1" values="0 0;0 20.46374400000001" begin="0s" dur="0.8333333333333334s"></animateTransform>

        </g><g>
            <path d="M0 960.5249279999999 L1920 960.5249279999999"></path>
            <animateTransform attributeName="transform" type="translate" repeatCount="indefinite" calcMode="linear" keyTimes="0;1" values="0 0;0 21.35347200000001" begin="0s" dur="0.8333333333333334s"></animateTransform>

        </g><g>
            <path d="M0 981.8783999999999 L1920 981.8783999999999"></path>
            <animateTransform attributeName="transform" type="translate" repeatCount="indefinite" calcMode="linear" keyTimes="0;1" values="0 0;0 22.243200000000012" begin="0s" dur="0.8333333333333334s"></animateTransform>

        </g><rect x="0" y="0" width="1920" height="993" fill="url(#fg-lg-0.32329240423913275)"></rect></g>
</svg>
